<svg width="277" height="86" viewBox="0 0 277 86" fill="none" xmlns="http://www.w3.org/2000/svg">
<path d="M44.8039 48.279V36.7209H0V85H13.3689H63.5927V73.442H12.0441V48.279H44.8039Z" fill="#0085FF"/>
<path d="M0 23.7182C0 27.2097 2.77013 29.9788 6.26291 29.9788H12.0441V11.5581H63.5927V0H6.26291C2.77013 0 0 2.76912 0 6.26063V23.7182Z" fill="#0085FF"/>
<path d="M63.5927 27.5707C63.5927 22.6344 58.8956 18.4205 53.4757 18.4205H18.7888V29.9786H49.3807C50.5851 29.9786 51.6691 30.9418 51.6691 32.2662V52.9744C51.6691 54.1784 50.7056 55.2619 49.3807 55.2619H18.7888V66.82H53.4757C59.2569 66.82 63.5927 62.0042 63.5927 55.7435V27.5707Z" fill="#0085FF"/>
<path d="M78.6761 58.4895H103.894V47.4215H90.7881V34.9137H100.279V23.9357H90.7881V11.158H103.894V0H78.6761V58.4895Z" fill="white"/>
<path d="M121.1 0H108.898L115.858 58.4895H134.93L142.251 0H130.049L126.072 45.5318H124.987L121.1 0Z" fill="white"/>
<path d="M157.352 58.4895H168.108C174.707 58.4895 178.141 54.3502 178.141 46.8816V11.9679C178.141 4.40921 174.887 0 167.747 0H157.352C151.206 0 147.5 4.40921 147.5 11.7879V47.0616C147.5 54.6202 151.387 58.4895 157.352 58.4895ZM159.521 47.4215V11.158H166.12V47.4215H159.521Z" fill="white"/>
<path d="M185.704 58.4895H211.103V47.4215H197.816V0H185.704V58.4895Z" fill="white"/>
<path d="M224.774 0H212.572L219.532 58.4895H238.604L245.925 0H233.723L229.746 45.5318H228.661L224.774 0Z" fill="white"/>
<path d="M251.701 58.4895H276.919V47.4215H263.813V34.9137H273.304V23.9357H263.813V11.158H276.919V0H251.701V58.4895Z" fill="white"/>
<mask id="path-5-outside-1" maskUnits="userSpaceOnUse" x="77.6761" y="69.9121" width="101" height="16" fill="black">
<rect fill="white" x="77.6761" y="69.9121" width="101" height="16"/>
<path d="M82.9037 84.8875C82.0422 84.8875 81.2976 84.7386 80.6699 84.4409C80.0423 84.1431 79.5561 83.7213 79.2115 83.1755C78.8669 82.6172 78.6885 81.9535 78.6761 81.1843H80.153C80.153 81.9162 80.3992 82.4993 80.8915 82.9335C81.3838 83.3553 82.0545 83.5662 82.9037 83.5662C83.716 83.5662 84.3498 83.3615 84.8052 82.9521C85.2729 82.5427 85.5067 81.9783 85.5067 81.2587C85.5067 80.6632 85.3467 80.1484 85.0267 79.7142C84.7067 79.2676 84.2575 78.9574 83.6791 78.7837L81.9253 78.2255C81.0022 77.9525 80.2884 77.4873 79.7838 76.8298C79.2915 76.1599 79.0454 75.3783 79.0454 74.485C79.0454 73.7531 79.2054 73.1266 79.5254 72.6055C79.8453 72.0721 80.2946 71.6565 80.873 71.3587C81.4638 71.061 82.153 70.9121 82.9406 70.9121C84.1098 70.9121 85.0452 71.2409 85.7467 71.8984C86.4482 72.5559 86.799 73.4367 86.799 74.5409H85.3406C85.3406 73.8337 85.1252 73.2755 84.6944 72.8661C84.2637 72.4567 83.6729 72.252 82.9222 72.252C82.1714 72.252 81.5807 72.438 81.1499 72.8102C80.7315 73.17 80.5222 73.6849 80.5222 74.3548C80.5222 74.9379 80.6822 75.4465 81.0022 75.8807C81.3222 76.3149 81.7714 76.6251 82.3499 76.8112L84.1037 77.3694C85.0144 77.6548 85.7221 78.1386 86.2267 78.8209C86.7313 79.5033 86.9836 80.3035 86.9836 81.2215C86.9836 81.9535 86.8113 82.5986 86.4667 83.1568C86.1344 83.7027 85.6606 84.1307 85.0452 84.4409C84.4421 84.7386 83.7283 84.8875 82.9037 84.8875Z"/>
<path d="M92.1455 84.7014V71.1168H99.7514V72.4567H93.6039V76.9414H99.1053V78.2627H93.6039V83.3615H99.7514V84.7014H92.1455Z"/>
<path d="M108.753 84.8875C107.953 84.8875 107.258 84.7324 106.667 84.4223C106.089 84.1121 105.639 83.6655 105.319 83.0824C104.999 82.4993 104.839 81.817 104.839 81.0354V74.7828C104.839 73.9888 104.999 73.3065 105.319 72.7358C105.639 72.1527 106.089 71.7061 106.667 71.3959C107.258 71.0858 107.953 70.9307 108.753 70.9307C109.541 70.9307 110.224 71.092 110.802 71.4146C111.393 71.7247 111.848 72.1713 112.168 72.7544C112.488 73.3375 112.648 74.0322 112.648 74.8386H111.19C111.19 74.0198 110.975 73.3871 110.544 72.9405C110.113 72.4815 109.516 72.252 108.753 72.252C107.99 72.252 107.387 72.4753 106.944 72.9219C106.513 73.3561 106.298 73.9764 106.298 74.7828V81.0354C106.298 81.8294 106.513 82.4497 106.944 82.8963C107.387 83.3429 107.99 83.5662 108.753 83.5662C109.516 83.5662 110.113 83.3429 110.544 82.8963C110.975 82.4373 111.19 81.7984 111.19 80.9796H112.648C112.648 81.7736 112.488 82.4683 112.168 83.0638C111.848 83.6469 111.393 84.0997 110.802 84.4223C110.224 84.7324 109.541 84.8875 108.753 84.8875Z"/>
<path d="M121.576 84.8875C120.37 84.8875 119.435 84.5401 118.77 83.8454C118.118 83.1506 117.792 82.214 117.792 81.0354V71.1168H119.25V81.0354C119.25 81.817 119.447 82.4373 119.841 82.8963C120.235 83.3429 120.813 83.5662 121.576 83.5662C122.339 83.5662 122.918 83.3429 123.312 82.8963C123.705 82.4373 123.902 81.817 123.902 81.0354V71.1168H125.361V81.0354C125.361 82.2264 125.035 83.1692 124.382 83.864C123.73 84.5463 122.795 84.8875 121.576 84.8875Z"/>
<path d="M130.744 84.7014V71.1168H134.806C135.606 71.1168 136.301 71.2781 136.892 71.6006C137.495 71.9232 137.956 72.376 138.276 72.9591C138.609 73.5298 138.775 74.2059 138.775 74.9875C138.775 75.9179 138.529 76.7119 138.036 77.3694C137.544 78.027 136.873 78.4674 136.024 78.6907L138.941 84.7014H137.206L134.51 78.8396H132.203V84.7014H130.744ZM132.203 77.4997H134.806C135.556 77.4997 136.153 77.2702 136.596 76.8112C137.052 76.3521 137.279 75.738 137.279 74.9689C137.279 74.1997 137.052 73.5918 136.596 73.1452C136.153 72.6862 135.556 72.4567 134.806 72.4567H132.203V77.4997Z"/>
<path d="M143.881 84.7014V83.3615H146.669V72.4567H143.881V71.1168H150.933V72.4567H148.164V83.3615H150.933V84.7014H143.881Z"/>
<path d="M159.603 84.7014V72.4567H155.818V71.0982H164.827V72.4567H161.061V84.7014H159.603Z"/>
<path d="M172.5 84.7014V79.5839L168.42 71.1168H169.934L172.703 76.8484C172.851 77.1461 172.967 77.4067 173.054 77.63C173.152 77.8533 173.22 78.0208 173.257 78.1324C173.294 78.0208 173.361 77.8533 173.46 77.63C173.558 77.4067 173.675 77.1461 173.811 76.8484L176.543 71.1168H178.057L173.977 79.5839V84.7014H172.5Z"/>
</mask>
<path d="M82.9037 84.8875C82.0422 84.8875 81.2976 84.7386 80.6699 84.4409C80.0423 84.1431 79.5561 83.7213 79.2115 83.1755C78.8669 82.6172 78.6885 81.9535 78.6761 81.1843H80.153C80.153 81.9162 80.3992 82.4993 80.8915 82.9335C81.3838 83.3553 82.0545 83.5662 82.9037 83.5662C83.716 83.5662 84.3498 83.3615 84.8052 82.9521C85.2729 82.5427 85.5067 81.9783 85.5067 81.2587C85.5067 80.6632 85.3467 80.1484 85.0267 79.7142C84.7067 79.2676 84.2575 78.9574 83.6791 78.7837L81.9253 78.2255C81.0022 77.9525 80.2884 77.4873 79.7838 76.8298C79.2915 76.1599 79.0454 75.3783 79.0454 74.485C79.0454 73.7531 79.2054 73.1266 79.5254 72.6055C79.8453 72.0721 80.2946 71.6565 80.873 71.3587C81.4638 71.061 82.153 70.9121 82.9406 70.9121C84.1098 70.9121 85.0452 71.2409 85.7467 71.8984C86.4482 72.5559 86.799 73.4367 86.799 74.5409H85.3406C85.3406 73.8337 85.1252 73.2755 84.6944 72.8661C84.2637 72.4567 83.6729 72.252 82.9222 72.252C82.1714 72.252 81.5807 72.438 81.1499 72.8102C80.7315 73.17 80.5222 73.6849 80.5222 74.3548C80.5222 74.9379 80.6822 75.4465 81.0022 75.8807C81.3222 76.3149 81.7714 76.6251 82.3499 76.8112L84.1037 77.3694C85.0144 77.6548 85.7221 78.1386 86.2267 78.8209C86.7313 79.5033 86.9836 80.3035 86.9836 81.2215C86.9836 81.9535 86.8113 82.5986 86.4667 83.1568C86.1344 83.7027 85.6606 84.1307 85.0452 84.4409C84.4421 84.7386 83.7283 84.8875 82.9037 84.8875Z" fill="white"/>
<path d="M92.1455 84.7014V71.1168H99.7514V72.4567H93.6039V76.9414H99.1053V78.2627H93.6039V83.3615H99.7514V84.7014H92.1455Z" fill="white"/>
<path d="M108.753 84.8875C107.953 84.8875 107.258 84.7324 106.667 84.4223C106.089 84.1121 105.639 83.6655 105.319 83.0824C104.999 82.4993 104.839 81.817 104.839 81.0354V74.7828C104.839 73.9888 104.999 73.3065 105.319 72.7358C105.639 72.1527 106.089 71.7061 106.667 71.3959C107.258 71.0858 107.953 70.9307 108.753 70.9307C109.541 70.9307 110.224 71.092 110.802 71.4146C111.393 71.7247 111.848 72.1713 112.168 72.7544C112.488 73.3375 112.648 74.0322 112.648 74.8386H111.19C111.19 74.0198 110.975 73.3871 110.544 72.9405C110.113 72.4815 109.516 72.252 108.753 72.252C107.99 72.252 107.387 72.4753 106.944 72.9219C106.513 73.3561 106.298 73.9764 106.298 74.7828V81.0354C106.298 81.8294 106.513 82.4497 106.944 82.8963C107.387 83.3429 107.99 83.5662 108.753 83.5662C109.516 83.5662 110.113 83.3429 110.544 82.8963C110.975 82.4373 111.19 81.7984 111.19 80.9796H112.648C112.648 81.7736 112.488 82.4683 112.168 83.0638C111.848 83.6469 111.393 84.0997 110.802 84.4223C110.224 84.7324 109.541 84.8875 108.753 84.8875Z" fill="white"/>
<path d="M121.576 84.8875C120.37 84.8875 119.435 84.5401 118.77 83.8454C118.118 83.1506 117.792 82.214 117.792 81.0354V71.1168H119.25V81.0354C119.25 81.817 119.447 82.4373 119.841 82.8963C120.235 83.3429 120.813 83.5662 121.576 83.5662C122.339 83.5662 122.918 83.3429 123.312 82.8963C123.705 82.4373 123.902 81.817 123.902 81.0354V71.1168H125.361V81.0354C125.361 82.2264 125.035 83.1692 124.382 83.864C123.73 84.5463 122.795 84.8875 121.576 84.8875Z" fill="white"/>
<path d="M130.744 84.7014V71.1168H134.806C135.606 71.1168 136.301 71.2781 136.892 71.6006C137.495 71.9232 137.956 72.376 138.276 72.9591C138.609 73.5298 138.775 74.2059 138.775 74.9875C138.775 75.9179 138.529 76.7119 138.036 77.3694C137.544 78.027 136.873 78.4674 136.024 78.6907L138.941 84.7014H137.206L134.51 78.8396H132.203V84.7014H130.744ZM132.203 77.4997H134.806C135.556 77.4997 136.153 77.2702 136.596 76.8112C137.052 76.3521 137.279 75.738 137.279 74.9689C137.279 74.1997 137.052 73.5918 136.596 73.1452C136.153 72.6862 135.556 72.4567 134.806 72.4567H132.203V77.4997Z" fill="white"/>
<path d="M143.881 84.7014V83.3615H146.669V72.4567H143.881V71.1168H150.933V72.4567H148.164V83.3615H150.933V84.7014H143.881Z" fill="white"/>
<path d="M159.603 84.7014V72.4567H155.818V71.0982H164.827V72.4567H161.061V84.7014H159.603Z" fill="white"/>
<path d="M172.5 84.7014V79.5839L168.42 71.1168H169.934L172.703 76.8484C172.851 77.1461 172.967 77.4067 173.054 77.63C173.152 77.8533 173.22 78.0208 173.257 78.1324C173.294 78.0208 173.361 77.8533 173.46 77.63C173.558 77.4067 173.675 77.1461 173.811 76.8484L176.543 71.1168H178.057L173.977 79.5839V84.7014H172.5Z" fill="white"/>
<path d="M82.9037 84.8875C82.0422 84.8875 81.2976 84.7386 80.6699 84.4409C80.0423 84.1431 79.5561 83.7213 79.2115 83.1755C78.8669 82.6172 78.6885 81.9535 78.6761 81.1843H80.153C80.153 81.9162 80.3992 82.4993 80.8915 82.9335C81.3838 83.3553 82.0545 83.5662 82.9037 83.5662C83.716 83.5662 84.3498 83.3615 84.8052 82.9521C85.2729 82.5427 85.5067 81.9783 85.5067 81.2587C85.5067 80.6632 85.3467 80.1484 85.0267 79.7142C84.7067 79.2676 84.2575 78.9574 83.6791 78.7837L81.9253 78.2255C81.0022 77.9525 80.2884 77.4873 79.7838 76.8298C79.2915 76.1599 79.0454 75.3783 79.0454 74.485C79.0454 73.7531 79.2054 73.1266 79.5254 72.6055C79.8453 72.0721 80.2946 71.6565 80.873 71.3587C81.4638 71.061 82.153 70.9121 82.9406 70.9121C84.1098 70.9121 85.0452 71.2409 85.7467 71.8984C86.4482 72.5559 86.799 73.4367 86.799 74.5409H85.3406C85.3406 73.8337 85.1252 73.2755 84.6944 72.8661C84.2637 72.4567 83.6729 72.252 82.9222 72.252C82.1714 72.252 81.5807 72.438 81.1499 72.8102C80.7315 73.17 80.5222 73.6849 80.5222 74.3548C80.5222 74.9379 80.6822 75.4465 81.0022 75.8807C81.3222 76.3149 81.7714 76.6251 82.3499 76.8112L84.1037 77.3694C85.0144 77.6548 85.7221 78.1386 86.2267 78.8209C86.7313 79.5033 86.9836 80.3035 86.9836 81.2215C86.9836 81.9535 86.8113 82.5986 86.4667 83.1568C86.1344 83.7027 85.6606 84.1307 85.0452 84.4409C84.4421 84.7386 83.7283 84.8875 82.9037 84.8875Z" stroke="white" stroke-width="0.6" mask="url(#path-5-outside-1)"/>
<path d="M92.1455 84.7014V71.1168H99.7514V72.4567H93.6039V76.9414H99.1053V78.2627H93.6039V83.3615H99.7514V84.7014H92.1455Z" stroke="white" stroke-width="0.6" mask="url(#path-5-outside-1)"/>
<path d="M108.753 84.8875C107.953 84.8875 107.258 84.7324 106.667 84.4223C106.089 84.1121 105.639 83.6655 105.319 83.0824C104.999 82.4993 104.839 81.817 104.839 81.0354V74.7828C104.839 73.9888 104.999 73.3065 105.319 72.7358C105.639 72.1527 106.089 71.7061 106.667 71.3959C107.258 71.0858 107.953 70.9307 108.753 70.9307C109.541 70.9307 110.224 71.092 110.802 71.4146C111.393 71.7247 111.848 72.1713 112.168 72.7544C112.488 73.3375 112.648 74.0322 112.648 74.8386H111.19C111.19 74.0198 110.975 73.3871 110.544 72.9405C110.113 72.4815 109.516 72.252 108.753 72.252C107.99 72.252 107.387 72.4753 106.944 72.9219C106.513 73.3561 106.298 73.9764 106.298 74.7828V81.0354C106.298 81.8294 106.513 82.4497 106.944 82.8963C107.387 83.3429 107.99 83.5662 108.753 83.5662C109.516 83.5662 110.113 83.3429 110.544 82.8963C110.975 82.4373 111.19 81.7984 111.19 80.9796H112.648C112.648 81.7736 112.488 82.4683 112.168 83.0638C111.848 83.6469 111.393 84.0997 110.802 84.4223C110.224 84.7324 109.541 84.8875 108.753 84.8875Z" stroke="white" stroke-width="0.6" mask="url(#path-5-outside-1)"/>
<path d="M121.576 84.8875C120.37 84.8875 119.435 84.5401 118.77 83.8454C118.118 83.1506 117.792 82.214 117.792 81.0354V71.1168H119.25V81.0354C119.25 81.817 119.447 82.4373 119.841 82.8963C120.235 83.3429 120.813 83.5662 121.576 83.5662C122.339 83.5662 122.918 83.3429 123.312 82.8963C123.705 82.4373 123.902 81.817 123.902 81.0354V71.1168H125.361V81.0354C125.361 82.2264 125.035 83.1692 124.382 83.864C123.73 84.5463 122.795 84.8875 121.576 84.8875Z" stroke="white" stroke-width="0.6" mask="url(#path-5-outside-1)"/>
<path d="M130.744 84.7014V71.1168H134.806C135.606 71.1168 136.301 71.2781 136.892 71.6006C137.495 71.9232 137.956 72.376 138.276 72.9591C138.609 73.5298 138.775 74.2059 138.775 74.9875C138.775 75.9179 138.529 76.7119 138.036 77.3694C137.544 78.027 136.873 78.4674 136.024 78.6907L138.941 84.7014H137.206L134.51 78.8396H132.203V84.7014H130.744ZM132.203 77.4997H134.806C135.556 77.4997 136.153 77.2702 136.596 76.8112C137.052 76.3521 137.279 75.738 137.279 74.9689C137.279 74.1997 137.052 73.5918 136.596 73.1452C136.153 72.6862 135.556 72.4567 134.806 72.4567H132.203V77.4997Z" stroke="white" stroke-width="0.6" mask="url(#path-5-outside-1)"/>
<path d="M143.881 84.7014V83.3615H146.669V72.4567H143.881V71.1168H150.933V72.4567H148.164V83.3615H150.933V84.7014H143.881Z" stroke="white" stroke-width="0.6" mask="url(#path-5-outside-1)"/>
<path d="M159.603 84.7014V72.4567H155.818V71.0982H164.827V72.4567H161.061V84.7014H159.603Z" stroke="white" stroke-width="0.6" mask="url(#path-5-outside-1)"/>
<path d="M172.5 84.7014V79.5839L168.42 71.1168H169.934L172.703 76.8484C172.851 77.1461 172.967 77.4067 173.054 77.63C173.152 77.8533 173.22 78.0208 173.257 78.1324C173.294 78.0208 173.361 77.8533 173.46 77.63C173.558 77.4067 173.675 77.1461 173.811 76.8484L176.543 71.1168H178.057L173.977 79.5839V84.7014H172.5Z" stroke="white" stroke-width="0.6" mask="url(#path-5-outside-1)"/>
<path d="M276.919 73.5H186.856V84.8873H276.919V73.5Z" fill="#0085FF"/>
</svg>
